<svg xmlns="http://www.w3.org/2000/svg" viewBox="0 0 240 240" fill="none">
  <defs>
    <linearGradient id="okRing" x1="40" y1="28" x2="198" y2="208" gradientUnits="userSpaceOnUse">
      <stop offset="0" stop-color="#dceec4"/>
      <stop offset="0.5" stop-color="#90b771"/>
      <stop offset="1" stop-color="#577d45"/>
    </linearGradient>
    <filter id="okGlow" x="-30%" y="-30%" width="160%" height="160%">
      <feGaussianBlur stdDeviation="5" result="blur"/>
      <feMerge><feMergeNode in="blur"/><feMergeNode in="SourceGraphic"/></feMerge>
    </filter>
  </defs>
  <g filter="url(#okGlow)">
    <circle cx="120" cy="120" r="94" stroke="url(#okRing)" stroke-width="5.5" opacity="0.86"/>
    <path d="M70 125c0-41 21-67 53-67 31 0 53 24 53 59 0 14 3 29 9 42" stroke="#a9c48a" stroke-width="6" stroke-linecap="round" opacity="0.5"/>
    <path d="M92 195c-8-16-12-33-12-55 0-17 4-31 12-41 7-9 16-14 27-14 22 0 37 18 37 42 0 15 3 29 10 44" stroke="#bdd7a0" stroke-width="5.4" stroke-linecap="round" opacity="0.78"/>
    <path d="M76 124 104 152 166 88" stroke="#dff0c7" stroke-width="13" stroke-linecap="round" stroke-linejoin="round"/>
  </g>
</svg>
