<svg xmlns="http://www.w3.org/2000/svg" viewBox="0 0 200 240" fill="none">
  <path d="M99 221c-9-22-10-38-8-70 2-26 8-41 26-42 18-1 29 12 28 34-1 25 3 39 16 59" stroke="#b74b3c" stroke-width="7" stroke-linecap="round"/>
  <path d="M72 210c-8-22-11-43-8-72 4-38 23-62 55-61 32 1 54 26 54 62 0 21 4 40 12 55" stroke="#b74b3c" stroke-width="7" stroke-linecap="round"/>
  <path d="M47 196c-6-18-10-42-7-70 5-48 35-80 78-79 44 1 81 35 81 87" stroke="#b74b3c" stroke-width="7" stroke-linecap="round"/>
  <path d="M22 176c-6-29-3-58 10-83 18-36 50-57 88-56 37 1 68 20 88 53" stroke="#b74b3c" stroke-width="7" stroke-linecap="round"/>
  <path d="M125 221c-10-24-13-49-11-81" stroke="#b74b3c" stroke-width="7" stroke-linecap="round"/>
  <path d="M99 37c31-4 60 6 83 30" stroke="#b74b3c" stroke-width="7" stroke-linecap="round" opacity=".65"/>
</svg>
